<?xml version="1.0" encoding="utf-8"?>
<!-- Generator: Adobe Illustrator 27.0.0, SVG Export Plug-In . SVG Version: 6.00 Build 0)  -->
<svg version="1.1" id="Layer_1" xmlns="http://www.w3.org/2000/svg" xmlns:xlink="http://www.w3.org/1999/xlink" x="0px" y="0px"
	 viewBox="0 0 24 24" style="enable-background:new 0 0 24 24;" xml:space="preserve">
<style type="text/css">
	.st0{fill-rule:evenodd;clip-rule:evenodd;fill:#FFFEFC;}
</style>
<path class="st0" d="M24,12c0-3.7-1.5-7.3-4.1-9.9l-1.4,1.4C20.7,5.8,22,8.8,22,12c0,3.2-1.3,6.2-3.5,8.5l1.4,1.4
	C22.5,19.3,24,15.7,24,12z M11,4c0-0.4-0.2-0.8-0.6-0.9C10,2.9,9.6,3,9.3,3.3L4.6,8H1C0.4,8,0,8.4,0,9v6c0,0.6,0.4,1,1,1h3.6
	l4.7,4.7c0.3,0.3,0.7,0.4,1.1,0.2c0.4-0.2,0.6-0.5,0.6-0.9V4z M5.7,9.7L9,6.4v11.2l-3.3-3.3L5.4,14H5H2v-4h3h0.4L5.7,9.7z M16,12
	c0-1.6-0.6-3.1-1.8-4.2l-1.4,1.4C13.6,9.9,14,10.9,14,12c0,1.1-0.4,2.1-1.2,2.8l1.4,1.4C15.4,15.1,16,13.6,16,12z M17.1,4.9
	C18.9,6.8,20,9.3,20,12c0,2.7-1.1,5.2-2.9,7.1l-1.4-1.4c1.5-1.5,2.3-3.5,2.3-5.7c0-2.1-0.8-4.2-2.3-5.7L17.1,4.9z"/>
</svg>
