<?xml version="1.0" encoding="utf-8"?>
<!-- Generator: Adobe Illustrator 27.0.0, SVG Export Plug-In . SVG Version: 6.00 Build 0)  -->
<svg version="1.1" id="Layer_1" xmlns="http://www.w3.org/2000/svg" xmlns:xlink="http://www.w3.org/1999/xlink" x="0px" y="0px"
	 viewBox="0 0 24 24" style="enable-background:new 0 0 24 24;" xml:space="preserve">
<style type="text/css">
	.st0{fill-rule:evenodd;clip-rule:evenodd;fill:#FFFEFC;}
</style>
<path class="st0" d="M11,4c0-0.4-0.2-0.8-0.6-0.9C10,2.9,9.6,3,9.3,3.3L4.6,8H1C0.4,8,0,8.4,0,9v6c0,0.6,0.4,1,1,1h3.6l4.7,4.7
	c0.3,0.3,0.7,0.4,1.1,0.2c0.4-0.2,0.6-0.5,0.6-0.9V4z M5.7,9.7L9,6.4v11.2l-3.3-3.3L5.4,14H5H2v-4h3h0.4L5.7,9.7z M15.3,9.7l2.3,2.3
	l-2.3,2.3l1.4,1.4l2.3-2.3l2.3,2.3l1.4-1.4L20.4,12l2.3-2.3l-1.4-1.4L19,10.6l-2.3-2.3L15.3,9.7z"/>
</svg>
